<svg width="81" height="96" viewBox="0 0 81 96" fill="none" xmlns="http://www.w3.org/2000/svg">
    <path d="M0 70.7368C0 75.1832 1.97437 79.1747 5.0625 81.9537V90.9474C5.0625 93.7263 7.34062 96 10.125 96H15.1875C17.9719 96 20.25 93.7263 20.25 90.9474V85.8947H60.75V90.9474C60.75 93.7263 63.0281 96 65.8125 96H70.875C73.6594 96 75.9375 93.7263 75.9375 90.9474V81.9537C79.0256 79.1747 81 75.1832 81 70.7368V20.2105C81 2.52632 62.8763 0 40.5 0C18.1237 0 0 2.52632 0 20.2105V70.7368ZM17.7188 75.7895C13.5169 75.7895 10.125 72.4042 10.125 68.2105C10.125 64.0168 13.5169 60.6316 17.7188 60.6316C21.9206 60.6316 25.3125 64.0168 25.3125 68.2105C25.3125 72.4042 21.9206 75.7895 17.7188 75.7895ZM63.2812 75.7895C59.0794 75.7895 55.6875 72.4042 55.6875 68.2105C55.6875 64.0168 59.0794 60.6316 63.2812 60.6316C67.4831 60.6316 70.875 64.0168 70.875 68.2105C70.875 72.4042 67.4831 75.7895 63.2812 75.7895ZM70.875 45.4737H10.125V20.2105H70.875V45.4737Z" fill="#001F25"/>
    </svg>
    