<svg width="96" height="96" viewBox="0 0 96 96" fill="none" xmlns="http://www.w3.org/2000/svg">
    <g clip-path="url(#clip0_17_519)">
    <path d="M48 0C21.5313 0 0 21.5336 0 48C0 48.5019 0.00684476 48.9993 0.0228159 49.4967C0.177964 54.5345 1.11341 59.3806 2.71052 63.9163C9.29062 82.5866 27.1075 96 48 96C68.897 96 86.7185 82.5774 93.2918 63.9004C94.8889 59.3646 95.8243 54.5208 95.9772 49.483C95.9932 48.9902 96 48.4974 96 48C96 21.5336 74.4664 0 48 0ZM19.1496 59.0315C19.9903 58.7748 20.8384 58.5254 21.7018 58.2915C26.7431 56.9256 32.0437 55.9764 37.5442 55.4485L38.8796 77.5077C29.8176 74.7007 22.5252 67.8306 19.1496 59.0315ZM48.3696 55.438C44.7784 55.438 41.8671 52.5267 41.8671 48.9354C41.8671 45.3442 44.7784 42.4329 48.3696 42.4329C51.9608 42.4329 54.8721 45.3442 54.8721 48.9354C54.8721 52.5267 51.9608 55.438 48.3696 55.438ZM57.1526 77.4977L58.4873 55.4492C63.9757 55.9767 69.2667 56.9233 74.301 58.2856C75.1643 58.5188 76.0124 58.7679 76.8532 59.0242C73.483 67.8172 66.202 74.6838 57.1526 77.4977ZM75.9736 43.3275C67.1258 41.1473 57.7191 40.0418 48.0146 40.0418C38.2923 40.0418 28.8748 41.1502 20.0243 43.336C19.1309 43.5564 18.2484 43.7912 17.3711 44.0328C17.3923 43.8685 17.4099 43.7033 17.4338 43.5397C19.6011 28.6134 32.4829 17.1119 48 17.1119C63.5148 17.1119 76.3943 28.6088 78.5641 43.5304C78.5881 43.6937 78.6059 43.8591 78.6273 44.0234C77.7498 43.782 76.8671 43.5475 75.9736 43.3275Z" fill="black"/>
    </g>
    <defs>
    <clipPath id="clip0_17_519">
    <rect width="96" height="96" fill="white"/>
    </clipPath>
    </defs>
    </svg>
    