<svg width="73" height="96" viewBox="0 0 73 96" fill="none" xmlns="http://www.w3.org/2000/svg">
<path d="M28.9445 7.96263C28.9445 3.55777 32.5023 0 36.9071 0C41.312 0 44.8698 3.55777 44.8698 7.96263C44.8698 12.3675 41.312 15.9253 36.9071 15.9253C32.5023 15.9253 28.9445 12.3675 28.9445 7.96263ZM14.9845 42.7949L10.8507 41.9478C9.46149 42.8965 8.64828 43.4048 7.25906 44.3196L3.15915 64.7514L10.2747 66.1745L14.9845 42.7949ZM47.9532 95.8565C50.5283 95.2466 52.1547 92.6714 51.5448 90.0963L46.835 69.6984C46.6656 68.953 46.3268 68.2753 45.8524 67.6993L33.8576 53.2988L36.8394 39.3727L15.7299 52.1806L12.1044 69.7662L0.685654 88.7409C-0.669687 91.0111 0.0418673 93.959 2.31206 95.3143C4.58226 96.6697 7.53013 95.9581 8.88547 93.6879L20.7447 74.0016C21.0158 73.5272 21.2191 73.019 21.3207 72.4769L24.4719 57.0599L37.7542 73.019L42.193 92.2987C42.8029 94.8739 45.378 96.4664 47.9532 95.8565ZM72.1799 30.2241L72.1121 30.2919L55.2042 44.5907L47.6482 37.0347H33.7221L16.7464 47.3014L21.6596 24.3623C22.7099 19.5169 27.4875 16.3996 32.3329 17.45C37.2121 18.5004 40.2955 23.278 39.2451 28.1233L38.8724 29.5803H41.6847L59.1347 14.841L64.5561 21.245L72.0782 16.6029V30.1563L72.1799 30.2241ZM68.5543 29.9191L58.8637 18.4665L45.7169 29.5803H51.4093C53.4762 29.5803 55.1365 31.2406 55.1365 33.3075C55.1365 35.3405 53.5101 37.0008 51.4432 37.0347L55.5092 40.9313L68.5543 29.9191Z" fill="black"/>
</svg>
